<svg id="visual" viewBox="0 0 900 600" width="900" height="600" xmlns="http://www.w3.org/2000/svg" xmlns:xlink="http://www.w3.org/1999/xlink" version="1.1"><rect x="0" y="0" width="900" height="600" fill="#fff"></rect><defs><linearGradient id="grad1_0" x1="33.3%" y1="0%" x2="100%" y2="100%"><stop offset="20%" stop-color="#ffffff" stop-opacity="1"></stop><stop offset="80%" stop-color="#ffffff" stop-opacity="1"></stop></linearGradient></defs><defs><linearGradient id="grad2_0" x1="0%" y1="0%" x2="66.7%" y2="100%"><stop offset="20%" stop-color="#ffffff" stop-opacity="1"></stop><stop offset="80%" stop-color="#ffffff" stop-opacity="1"></stop></linearGradient></defs><g transform="translate(900, 0)"><path d="M0 351.5C-44.6 343.8 -89.2 336.1 -132.8 320.6C-176.3 305.1 -218.8 281.9 -248.6 248.6C-278.3 215.2 -295.4 171.7 -310.4 128.6C-325.5 85.5 -338.5 42.7 -351.5 0L0 0Z" fill="#ef6151"></path></g><g transform="translate(0, 600)"><path d="M0 -351.5C34 -307.7 68 -263.8 99.5 -240.2C131 -216.6 159.9 -213.3 201.5 -201.5C243.2 -189.8 297.6 -169.5 324.8 -134.5C351.9 -99.5 351.7 -49.8 351.5 0L0 0Z" fill="#ef6151"></path></g></svg>