<svg id="visual" viewBox="0 0 960 540" width="960" height="540" xmlns="http://www.w3.org/2000/svg" xmlns:xlink="http://www.w3.org/1999/xlink" version="1.1"><rect x="0" y="0" width="960" height="540" fill="#fff"></rect><defs><linearGradient id="grad1_0" x1="43.8%" y1="0%" x2="100%" y2="100%"><stop offset="14.444444444444446%" stop-color="#ffffff" stop-opacity="1"></stop><stop offset="85.55555555555554%" stop-color="#ffffff" stop-opacity="1"></stop></linearGradient></defs><defs><linearGradient id="grad2_0" x1="0%" y1="0%" x2="56.3%" y2="100%"><stop offset="14.444444444444446%" stop-color="#ffffff" stop-opacity="1"></stop><stop offset="85.55555555555554%" stop-color="#ffffff" stop-opacity="1"></stop></linearGradient></defs><g transform="translate(960, 0)"><path d="M0 378C-32.9 359.4 -65.8 340.8 -108.8 334.8C-151.7 328.7 -204.8 335.3 -222.2 305.8C-239.6 276.3 -221.3 210.9 -243.5 176.9C-265.7 142.9 -328.4 140.4 -357.6 116.2C-386.8 91.9 -382.4 46 -378 0L0 0Z" fill="#ef6151"></path></g><g transform="translate(0, 540)"><path d="M0 -378C44.3 -380.9 88.6 -383.8 116.8 -359.5C145 -335.2 157.2 -283.6 185.2 -254.8C213.1 -226.1 257 -220.3 267.8 -194.6C278.6 -168.8 256.3 -123.2 269.1 -87.5C282 -51.7 330 -25.9 378 0L0 0Z" fill="#ef6151"></path></g></svg>