<svg id="visual" viewBox="0 0 900 600" width="900" height="600" xmlns="http://www.w3.org/2000/svg" xmlns:xlink="http://www.w3.org/1999/xlink" version="1.1"><rect x="0" y="0" width="900" height="600" fill="#001220"></rect><defs><linearGradient id="grad1_0" x1="33.3%" y1="0%" x2="100%" y2="100%"><stop offset="20%" stop-color="#001220" stop-opacity="1"></stop><stop offset="80%" stop-color="#001220" stop-opacity="1"></stop></linearGradient></defs><defs><linearGradient id="grad2_0" x1="0%" y1="0%" x2="66.7%" y2="100%"><stop offset="20%" stop-color="#001220" stop-opacity="1"></stop><stop offset="80%" stop-color="#001220" stop-opacity="1"></stop></linearGradient></defs><g transform="translate(900, 0)"><path d="M0 351.5C-51.5 348.4 -103.1 345.2 -130.1 314.1C-157.2 283 -159.7 224 -193.7 193.7C-227.8 163.5 -293.2 162 -324.8 134.5C-356.3 107 -353.9 53.5 -351.5 0L0 0Z" fill="#FBAE3C"></path></g><g transform="translate(0, 600)"><path d="M0 -351.5C20.2 -285.3 40.3 -219 87.6 -211.6C134.9 -204.1 209.4 -255.4 248.6 -248.6C287.8 -241.7 291.7 -176.6 303 -125.5C314.3 -74.4 332.9 -37.2 351.5 0L0 0Z" fill="#FBAE3C"></path></g></svg>